<svg width="35" height="47" viewBox="0 0 35 47" fill="none" xmlns="http://www.w3.org/2000/svg">
<path d="M23.8959 36.8352V37.9774H2.70776V7.53973H23.8959V16.2509C24.1736 16.1225 24.4763 16.057 24.7823 16.0592H26.3712V3.62478C26.3712 2.1065 25.0943 0.801514 23.5407 0.801514H3.05581C2.30762 0.803416 1.59061 1.10148 1.06156 1.63053C0.532508 2.15958 0.234446 2.87659 0.232544 3.62478V43.3753C0.233307 44.1238 0.531002 44.8415 1.0603 45.3708C1.5896 45.9001 2.30727 46.1978 3.05581 46.1986H23.5407C24.2897 46.1971 25.0076 45.8993 25.5379 45.3704C26.0682 44.8415 26.3677 44.1243 26.3712 43.3753V37.1192H24.9595C24.5859 37.122 24.2184 37.0239 23.8959 36.8352ZM11.4968 3.4612H15.0997C15.4975 3.4612 15.8095 3.78043 15.8095 4.17098C15.8095 4.56154 15.4975 4.88004 15.0997 4.88004H11.4968C11.1062 4.88004 10.787 4.56082 10.787 4.17098C10.787 3.78115 11.1062 3.4612 11.4968 3.4612ZM15.6459 43.0633H10.9506C10.8573 43.0638 10.7648 43.0458 10.6786 43.0103C10.5923 42.9748 10.5139 42.9226 10.4479 42.8567C10.3819 42.7908 10.3296 42.7124 10.2941 42.6262C10.2585 42.54 10.2404 42.4475 10.2408 42.3542C10.2408 41.9637 10.56 41.6445 10.9506 41.6445H15.6459C16.0437 41.6445 16.3557 41.9637 16.3557 42.3542C16.3566 42.4477 16.3388 42.5403 16.3034 42.6268C16.2681 42.7132 16.2158 42.7918 16.1497 42.8578C16.0836 42.9238 16.005 42.976 15.9185 43.0113C15.832 43.0466 15.7393 43.0643 15.6459 43.0633Z" fill="#0B6AF0"/>
<path d="M17.6773 18.6743C17.7434 18.7398 17.8219 18.7917 17.9081 18.8269C17.9944 18.8622 18.0867 18.8801 18.1798 18.8796C18.273 18.8791 18.3651 18.8603 18.451 18.8242C18.5369 18.7881 18.6148 18.7355 18.6803 18.6692L21.6448 15.6774C21.7766 15.5445 21.8505 15.3651 21.8505 15.178C21.8505 14.9909 21.7766 14.8114 21.6448 14.6786L18.6803 11.6867C18.5463 11.5612 18.3689 11.4924 18.1853 11.495C18.0016 11.4975 17.8262 11.5711 17.6957 11.7003C17.5652 11.8295 17.4898 12.0042 17.4854 12.1878C17.4811 12.3714 17.548 12.5495 17.6722 12.6848L20.1424 15.178L17.6722 17.6712C17.6067 17.7374 17.5548 17.8158 17.5196 17.9021C17.4843 17.9883 17.4664 18.0806 17.4669 18.1738C17.4674 18.2669 17.4862 18.3591 17.5223 18.445C17.5584 18.5308 17.611 18.6088 17.6773 18.6743ZM8.92212 11.6824C8.85608 11.6166 8.7777 11.5646 8.69148 11.5292C8.60526 11.4938 8.51289 11.4757 8.41969 11.4761C8.32648 11.4765 8.23428 11.4954 8.14836 11.5315C8.06245 11.5676 7.98452 11.6204 7.91906 11.6867L4.95528 14.6786C4.82353 14.8114 4.7496 14.9909 4.7496 15.178C4.7496 15.3651 4.82353 15.5445 4.95528 15.6774L7.91906 18.6692C8.0514 18.8029 8.23143 18.8786 8.41954 18.8795C8.60765 18.8804 8.78843 18.8066 8.92212 18.6743C9.0558 18.5419 9.13143 18.3619 9.13238 18.1738C9.13332 17.9857 9.0595 17.8049 8.92716 17.6712L6.4577 15.178L8.92716 12.6848C8.99272 12.6186 9.04459 12.5401 9.07982 12.4539C9.11505 12.3677 9.13294 12.2753 9.13247 12.1822C9.132 12.089 9.11318 11.9969 9.07709 11.911C9.041 11.8251 8.98834 11.7479 8.92212 11.6824ZM14.4433 9.67774L10.2797 20.1551C10.2454 20.2417 10.2284 20.3342 10.2298 20.4273C10.2312 20.5205 10.2509 20.6124 10.2879 20.6979C10.3248 20.7834 10.3782 20.8608 10.4451 20.9257C10.5119 20.9906 10.5909 21.0417 10.6775 21.076C10.7641 21.1104 10.8566 21.1273 10.9497 21.1259C11.0428 21.1245 11.1348 21.1048 11.2203 21.0678C11.3058 21.0309 11.3832 20.9775 11.4481 20.9106C11.513 20.8438 11.564 20.7648 11.5984 20.6782L15.7619 10.2009C15.7963 10.1143 15.8132 10.0218 15.8119 9.92865C15.8105 9.83551 15.7907 9.74356 15.7538 9.65805C15.7168 9.57253 15.6634 9.49513 15.5966 9.43026C15.5297 9.36539 15.4508 9.31432 15.3642 9.27997C15.2776 9.24562 15.1851 9.22866 15.0919 9.23006C14.9988 9.23146 14.9069 9.25119 14.8213 9.28813C14.7358 9.32506 14.6584 9.37848 14.5936 9.44533C14.5287 9.51218 14.4776 9.59115 14.4433 9.67774ZM34.1074 24.9715L32.5495 24.7957C32.3808 24.1282 32.1123 23.4901 31.7532 22.9027V22.8969L32.6749 21.5977C32.8838 21.3023 32.8507 20.898 32.5942 20.6415L31.478 19.526C31.3487 19.3966 31.1762 19.3194 30.9935 19.3092C30.8109 19.2989 30.6308 19.3564 30.4879 19.4705L29.2658 20.4462C28.6729 20.0951 28.0307 19.8352 27.3605 19.6752L27.0954 18.0971C27.0663 17.9234 26.9766 17.7656 26.8421 17.6518C26.7077 17.5381 26.5372 17.4758 26.3611 17.4759H24.7794C24.4004 17.4759 24.0826 17.7606 24.0401 18.1367L23.8635 19.7004C23.1973 19.872 22.5597 20.1402 21.9712 20.4966L20.667 19.57C20.5235 19.468 20.3486 19.4203 20.1732 19.4352C19.9979 19.4501 19.8335 19.5267 19.7093 19.6514L18.5982 20.7661C18.3316 21.0342 18.3071 21.4594 18.5427 21.7548L19.5205 22.9841C19.165 23.5754 18.903 24.2181 18.7437 24.8894L17.1707 25.1545C16.8126 25.2151 16.551 25.5249 16.551 25.8881V27.4647C16.551 27.843 16.8349 28.1615 17.2103 28.2041L18.7625 28.3799C18.9383 29.0572 19.2078 29.6957 19.5645 30.2786V30.2851L18.645 31.5771C18.4346 31.8726 18.4685 32.2783 18.7243 32.5348L19.8412 33.651C20.1078 33.9176 20.5344 33.9421 20.8298 33.7065L22.0592 32.7294C22.6502 33.0793 23.2902 33.3392 23.9579 33.5004L24.2231 35.0785C24.2836 35.4373 24.5935 35.6996 24.9566 35.6996H26.5391C26.9174 35.6996 27.2359 35.415 27.2784 35.0388L27.4542 33.4752C28.1226 33.3092 28.7611 33.0406 29.3472 32.6789L30.6515 33.6056C30.9469 33.816 31.3526 33.7814 31.6091 33.5242L32.7203 32.4087C32.9869 32.1414 33.0114 31.7169 32.7757 31.4208L31.803 30.1972C32.153 29.6018 32.4128 28.9578 32.574 28.2862L34.147 28.021C34.5052 27.9605 34.7675 27.6507 34.7675 27.2875V25.7108C34.7675 25.3325 34.4835 25.014 34.1074 24.9715ZM25.6621 29.646C24.851 29.646 24.0732 29.3238 23.4996 28.7502C22.9261 28.1767 22.6039 27.3989 22.6039 26.5878C22.6051 25.7771 22.9276 24.9999 23.5009 24.4266C24.0742 23.8533 24.8514 23.5307 25.6621 23.5296C26.4722 23.5309 27.2486 23.8538 27.8208 24.4272C28.393 25.0006 28.7142 25.7777 28.7138 26.5878C28.7145 26.989 28.636 27.3865 28.483 27.7574C28.3299 28.1283 28.1053 28.4654 27.8218 28.7494C27.5384 29.0335 27.2018 29.2588 26.8312 29.4127C26.4606 29.5665 26.0633 29.6458 25.6621 29.646Z" 
fill="#0B6AF0"/>
</svg>
